<svg xmlns="http://www.w3.org/2000/svg" viewBox="0 0 32 32" fill="none">
  <rect width="32" height="32" rx="8" fill="#2D6A4F"/>
  <path d="M16 6c5 0 9 4 9 9 0 1.2-.3 2.3-.7 3.3-1.6-3.2-4.6-5.3-8.3-5.3s-6.7 2.1-8.3 5.3A8.9 8.9 0 0 1 7 15c0-5 4-9 9-9Z" fill="#40916C"/>
  <path d="M16 13c4 0 7.2 2.8 8 6.6.2.9-.5 1.7-1.4 1.4-1.9-.6-4.2-1-6.6-1s-4.7.4-6.6 1c-.9.3-1.6-.5-1.4-1.4.8-3.8 4-6.6 8-6.6Z" fill="#B9D9C7"/>
  <circle cx="13" cy="18" r="1.1" fill="#1B4332"/>
  <circle cx="19" cy="18" r="1.1" fill="#1B4332"/>
  <circle cx="16" cy="20.5" r="1.1" fill="#1B4332"/>
</svg>
